# xmcd CD database file
#
# Track frame offsets:
#	150
#	20851
#	45194
#
# Disc length: 914 seconds
#
# Revision: 0
# Processed by: cddbd v1.5.1PL0 Copyright (c) Steve Scherf et al.
# Submitted via: CDex 1.51
#
DISCID=1b039003
DTITLE=伊藤　奈津子 - persona
DYEAR=2005
DGENRE=JPop
TTITLE0=persona
TTITLE1=白いため息
TTITLE2=ずっと会いたくていつも会いたくて
EXTD=YEAR: 2005.06.22
EXTT0=
EXTT1=
EXTT2=
PLAYORDER=
